<svg xmlns="http://www.w3.org/2000/svg" width="1440" height="1024" viewBox="0 0 1440 1024">
  <title>Doctor - Dashboard black white</title>
  <rect width="1440" height="1024" fill="#fff"/>
  <rect x="0" y="0" width="248" height="1024" rx="0" fill="#fff" stroke="#111" stroke-width="2"/>
  <rect x="248" y="0" width="1192" height="72" rx="0" fill="#fff" stroke="#111" stroke-width="2"/>
  <rect x="28" y="26" width="54" height="38" rx="0" fill="#fff" stroke="#111" stroke-width="2"/><line x1="36" y1="34" x2="74" y2="56" stroke="#111" stroke-width="2" stroke-linecap="round"/><line x1="74" y1="34" x2="36" y2="56" stroke="#111" stroke-width="2" stroke-linecap="round"/>
  <text x="96" y="48" font-family="Arial, sans-serif" font-size="18" font-weight="700" fill="#111">MedConsult</text>
  <text x="28" y="112" font-family="Arial, sans-serif" font-size="12" font-weight="700" fill="#111">DOCTOR</text>
  <rect x="28" y="130" width="192" height="42" rx="6" fill="#f1f1f1" stroke="#111" stroke-width="2"/><circle cx="52" cy="151" r="8" fill="#fff" stroke="#111" stroke-width="2"/><text x="72" y="156" font-family="Arial, sans-serif" font-size="13" font-weight="700" fill="#111">Dashboard</text><rect x="28" y="186" width="192" height="42" rx="6" fill="#fff" stroke="#111" stroke-width="2"/><circle cx="52" cy="207" r="8" fill="#fff" stroke="#111" stroke-width="2"/><text x="72" y="212" font-family="Arial, sans-serif" font-size="13" font-weight="400" fill="#111">Patients</text><rect x="28" y="242" width="192" height="42" rx="6" fill="#fff" stroke="#111" stroke-width="2"/><circle cx="52" cy="263" r="8" fill="#fff" stroke="#111" stroke-width="2"/><text x="72" y="268" font-family="Arial, sans-serif" font-size="13" font-weight="400" fill="#111">Schedule</text><rect x="28" y="298" width="192" height="42" rx="6" fill="#fff" stroke="#111" stroke-width="2"/><circle cx="52" cy="319" r="8" fill="#fff" stroke="#111" stroke-width="2"/><text x="72" y="324" font-family="Arial, sans-serif" font-size="13" font-weight="400" fill="#111">Consultation</text>
  <line x1="28" y1="920" x2="220" y2="920" stroke="#111" stroke-width="2" stroke-linecap="round"/>
  <text x="28" y="956" font-family="Arial, sans-serif" font-size="13" font-weight="700" fill="#111">Logout</text>
  <rect x="288" y="16" width="460" height="42" rx="6" fill="#fff" stroke="#111" stroke-width="2"/><text x="302" y="43" font-family="Arial, sans-serif" font-size="12" font-weight="400" fill="#555">Global search...</text>
  <rect x="1194" y="18" width="80" height="36" rx="6" fill="#fff" stroke="#111" stroke-width="2"/><text x="1234" y="41" font-family="Arial, sans-serif" font-size="12" font-weight="700" fill="#111" text-anchor="middle">Noti.</text>
  <circle cx="1316" cy="37" r="20" fill="#fff" stroke="#111" stroke-width="2"/>
  <rect x="1348" y="25" width="62" height="8" rx="0" fill="#111" stroke="#111" stroke-width="0"/><rect x="1348" y="39" width="42" height="8" rx="0" fill="#111" stroke="#111" stroke-width="0"/>
  <text x="288" y="134" font-family="Arial, sans-serif" font-size="28" font-weight="700" fill="#111">Doctor Dashboard</text><text x="288" y="162" font-family="Arial, sans-serif" font-size="13" font-weight="400" fill="#555">Tổng quan ca khám, lịch làm việc và bệnh nhân cần xử lý.</text><rect x="288" y="198" width="252" height="96" rx="10" fill="#fff" stroke="#111" stroke-width="2"/><circle cx="320" cy="238" r="16" fill="#fff" stroke="#111" stroke-width="2"/><text x="350" y="232" font-family="Arial, sans-serif" font-size="12" font-weight="700" fill="#111">Ca đang chờ</text><rect x="350" y="254" width="74" height="18" rx="0" fill="#111" stroke="#111" stroke-width="0"/><rect x="562" y="198" width="252" height="96" rx="10" fill="#fff" stroke="#111" stroke-width="2"/><circle cx="594" cy="238" r="16" fill="#fff" stroke="#111" stroke-width="2"/><text x="624" y="232" font-family="Arial, sans-serif" font-size="12" font-weight="700" fill="#111">Lịch hôm nay</text><rect x="624" y="254" width="74" height="18" rx="0" fill="#111" stroke="#111" stroke-width="0"/><rect x="836" y="198" width="252" height="96" rx="10" fill="#fff" stroke="#111" stroke-width="2"/><circle cx="868" cy="238" r="16" fill="#fff" stroke="#111" stroke-width="2"/><text x="898" y="232" font-family="Arial, sans-serif" font-size="12" font-weight="700" fill="#111">Tư vấn online</text><rect x="898" y="254" width="74" height="18" rx="0" fill="#111" stroke="#111" stroke-width="0"/><rect x="1110" y="198" width="252" height="96" rx="10" fill="#fff" stroke="#111" stroke-width="2"/><circle cx="1142" cy="238" r="16" fill="#fff" stroke="#111" stroke-width="2"/><text x="1172" y="232" font-family="Arial, sans-serif" font-size="12" font-weight="700" fill="#111">Hồ sơ mới</text><rect x="1172" y="254" width="74" height="18" rx="0" fill="#111" stroke="#111" stroke-width="0"/><rect x="288" y="328" width="612" height="380" rx="10" fill="#fff" stroke="#111" stroke-width="2"/><text x="306" y="358" font-family="Arial, sans-serif" font-size="16" font-weight="700" fill="#111">Danh sách ca chờ</text><rect x="312" y="382" width="564" height="268" rx="8" fill="#fff" stroke="#111" stroke-width="2"/><rect x="312" y="382" width="564" height="44" rx="8" fill="#f7f7f7" stroke="#111" stroke-width="2"/><text x="330" y="410" font-family="Arial, sans-serif" font-size="12" font-weight="700" fill="#111">Table header</text><line x1="312" y1="426" x2="876" y2="426" stroke="#999" stroke-width="1" stroke-linecap="round"/><circle cx="340" cy="454" r="12" fill="#fff" stroke="#111" stroke-width="2"/><rect x="366" y="446" width="160" height="8" rx="0" fill="#111" stroke="#111" stroke-width="0"/><rect x="366" y="461" width="110" height="8" rx="0" fill="#111" stroke="#111" stroke-width="0"/><rect x="592" y="446" width="200" height="8" rx="0" fill="#111" stroke="#111" stroke-width="0"/><rect x="592" y="461" width="140" height="8" rx="0" fill="#111" stroke="#111" stroke-width="0"/><rect x="666" y="444" width="86" height="28" rx="14" fill="#fff" stroke="#111" stroke-width="2"/><text x="709" y="463" font-family="Arial, sans-serif" font-size="11" font-weight="700" fill="#111" text-anchor="middle">Status</text><rect x="766" y="440" width="82" height="36" rx="6" fill="#fff" stroke="#111" stroke-width="2"/><text x="807" y="463" font-family="Arial, sans-serif" font-size="12" font-weight="700" fill="#111" text-anchor="middle">Action</text><line x1="312" y1="482" x2="876" y2="482" stroke="#999" stroke-width="1" stroke-linecap="round"/><circle cx="340" cy="510" r="12" fill="#fff" stroke="#111" stroke-width="2"/><rect x="366" y="502" width="160" height="8" rx="0" fill="#111" stroke="#111" stroke-width="0"/><rect x="366" y="517" width="110" height="8" rx="0" fill="#111" stroke="#111" stroke-width="0"/><rect x="592" y="502" width="200" height="8" rx="0" fill="#111" stroke="#111" stroke-width="0"/><rect x="592" y="517" width="140" height="8" rx="0" fill="#111" stroke="#111" stroke-width="0"/><rect x="666" y="500" width="86" height="28" rx="14" fill="#fff" stroke="#111" stroke-width="2"/><text x="709" y="519" font-family="Arial, sans-serif" font-size="11" font-weight="700" fill="#111" text-anchor="middle">Status</text><rect x="766" y="496" width="82" height="36" rx="6" fill="#fff" stroke="#111" stroke-width="2"/><text x="807" y="519" font-family="Arial, sans-serif" font-size="12" font-weight="700" fill="#111" text-anchor="middle">Action</text><line x1="312" y1="538" x2="876" y2="538" stroke="#999" stroke-width="1" stroke-linecap="round"/><circle cx="340" cy="566" r="12" fill="#fff" stroke="#111" stroke-width="2"/><rect x="366" y="558" width="160" height="8" rx="0" fill="#111" stroke="#111" stroke-width="0"/><rect x="366" y="573" width="110" height="8" rx="0" fill="#111" stroke="#111" stroke-width="0"/><rect x="592" y="558" width="200" height="8" rx="0" fill="#111" stroke="#111" stroke-width="0"/><rect x="592" y="573" width="140" height="8" rx="0" fill="#111" stroke="#111" stroke-width="0"/><rect x="666" y="556" width="86" height="28" rx="14" fill="#fff" stroke="#111" stroke-width="2"/><text x="709" y="575" font-family="Arial, sans-serif" font-size="11" font-weight="700" fill="#111" text-anchor="middle">Status</text><rect x="766" y="552" width="82" height="36" rx="6" fill="#fff" stroke="#111" stroke-width="2"/><text x="807" y="575" font-family="Arial, sans-serif" font-size="12" font-weight="700" fill="#111" text-anchor="middle">Action</text><line x1="312" y1="594" x2="876" y2="594" stroke="#999" stroke-width="1" stroke-linecap="round"/><circle cx="340" cy="622" r="12" fill="#fff" stroke="#111" stroke-width="2"/><rect x="366" y="614" width="160" height="8" rx="0" fill="#111" stroke="#111" stroke-width="0"/><rect x="366" y="629" width="110" height="8" rx="0" fill="#111" stroke="#111" stroke-width="0"/><rect x="592" y="614" width="200" height="8" rx="0" fill="#111" stroke="#111" stroke-width="0"/><rect x="592" y="629" width="140" height="8" rx="0" fill="#111" stroke="#111" stroke-width="0"/><rect x="666" y="612" width="86" height="28" rx="14" fill="#fff" stroke="#111" stroke-width="2"/><text x="709" y="631" font-family="Arial, sans-serif" font-size="11" font-weight="700" fill="#111" text-anchor="middle">Status</text><rect x="766" y="608" width="82" height="36" rx="6" fill="#fff" stroke="#111" stroke-width="2"/><text x="807" y="631" font-family="Arial, sans-serif" font-size="12" font-weight="700" fill="#111" text-anchor="middle">Action</text><rect x="928" y="328" width="456" height="380" rx="10" fill="#fff" stroke="#111" stroke-width="2"/><text x="946" y="358" font-family="Arial, sans-serif" font-size="16" font-weight="700" fill="#111">Timeline lịch hôm nay</text><circle cx="962" cy="386" r="8" fill="#fff" stroke="#111" stroke-width="2"/><line x1="962" y1="398" x2="962" y2="432" stroke="#777" stroke-width="1" stroke-linecap="round"/><rect x="992" y="366" width="340" height="44" rx="8" fill="#fff" stroke="#111" stroke-width="2"/><rect x="1010" y="379" width="126" height="8" rx="0" fill="#111" stroke="#111" stroke-width="0"/><rect x="1010" y="393" width="214" height="8" rx="0" fill="#111" stroke="#111" stroke-width="0"/><circle cx="962" cy="444" r="8" fill="#fff" stroke="#111" stroke-width="2"/><line x1="962" y1="456" x2="962" y2="490" stroke="#777" stroke-width="1" stroke-linecap="round"/><rect x="992" y="424" width="340" height="44" rx="8" fill="#fff" stroke="#111" stroke-width="2"/><rect x="1010" y="437" width="126" height="8" rx="0" fill="#111" stroke="#111" stroke-width="0"/><rect x="1010" y="451" width="214" height="8" rx="0" fill="#111" stroke="#111" stroke-width="0"/><circle cx="962" cy="502" r="8" fill="#fff" stroke="#111" stroke-width="2"/><line x1="962" y1="514" x2="962" y2="548" stroke="#777" stroke-width="1" stroke-linecap="round"/><rect x="992" y="482" width="340" height="44" rx="8" fill="#fff" stroke="#111" stroke-width="2"/><rect x="1010" y="495" width="126" height="8" rx="0" fill="#111" stroke="#111" stroke-width="0"/><rect x="1010" y="509" width="214" height="8" rx="0" fill="#111" stroke="#111" stroke-width="0"/><circle cx="962" cy="560" r="8" fill="#fff" stroke="#111" stroke-width="2"/><line x1="962" y1="572" x2="962" y2="606" stroke="#777" stroke-width="1" stroke-linecap="round"/><rect x="992" y="540" width="340" height="44" rx="8" fill="#fff" stroke="#111" stroke-width="2"/><rect x="1010" y="553" width="126" height="8" rx="0" fill="#111" stroke="#111" stroke-width="0"/><rect x="1010" y="567" width="214" height="8" rx="0" fill="#111" stroke="#111" stroke-width="0"/><circle cx="962" cy="618" r="8" fill="#fff" stroke="#111" stroke-width="2"/><line x1="962" y1="630" x2="962" y2="664" stroke="#777" stroke-width="1" stroke-linecap="round"/><rect x="992" y="598" width="340" height="44" rx="8" fill="#fff" stroke="#111" stroke-width="2"/><rect x="1010" y="611" width="126" height="8" rx="0" fill="#111" stroke="#111" stroke-width="0"/><rect x="1010" y="625" width="214" height="8" rx="0" fill="#111" stroke="#111" stroke-width="0"/><rect x="288" y="742" width="1096" height="180" rx="10" fill="#fff" stroke="#111" stroke-width="2"/><text x="306" y="772" font-family="Arial, sans-serif" font-size="16" font-weight="700" fill="#111">Hồ sơ bệnh nhân nổi bật</text><rect x="312" y="790" width="180" height="92" rx="0" fill="#fff" stroke="#111" stroke-width="2"/><line x1="320" y1="798" x2="484" y2="874" stroke="#111" stroke-width="2" stroke-linecap="round"/><line x1="484" y1="798" x2="320" y2="874" stroke="#111" stroke-width="2" stroke-linecap="round"/><rect x="520" y="794" width="240" height="8" rx="0" fill="#111" stroke="#111" stroke-width="0"/><rect x="520" y="808" width="320" height="8" rx="0" fill="#111" stroke="#111" stroke-width="0"/><rect x="520" y="822" width="220" height="8" rx="0" fill="#111" stroke="#111" stroke-width="0"/><rect x="520" y="836" width="180" height="8" rx="0" fill="#111" stroke="#111" stroke-width="0"/><rect x="1030" y="810" width="130" height="36" rx="6" fill="#fff" stroke="#111" stroke-width="2"/><text x="1095" y="833" font-family="Arial, sans-serif" font-size="12" font-weight="700" fill="#111" text-anchor="middle">Mở tư vấn</text><rect x="1182" y="810" width="130" height="36" rx="6" fill="#fff" stroke="#111" stroke-width="2"/><text x="1247" y="833" font-family="Arial, sans-serif" font-size="12" font-weight="700" fill="#111" text-anchor="middle">Xem hồ sơ</text>
  </svg>