<svg xmlns="http://www.w3.org/2000/svg" width="1440" height="1024" viewBox="0 0 1440 1024">
  <title>Doctor - Patients black white</title>
  <rect width="1440" height="1024" fill="#fff"/>
  <rect x="0" y="0" width="248" height="1024" rx="0" fill="#fff" stroke="#111" stroke-width="2"/>
  <rect x="248" y="0" width="1192" height="72" rx="0" fill="#fff" stroke="#111" stroke-width="2"/>
  <rect x="28" y="26" width="54" height="38" rx="0" fill="#fff" stroke="#111" stroke-width="2"/><line x1="36" y1="34" x2="74" y2="56" stroke="#111" stroke-width="2" stroke-linecap="round"/><line x1="74" y1="34" x2="36" y2="56" stroke="#111" stroke-width="2" stroke-linecap="round"/>
  <text x="96" y="48" font-family="Arial, sans-serif" font-size="18" font-weight="700" fill="#111">MedConsult</text>
  <text x="28" y="112" font-family="Arial, sans-serif" font-size="12" font-weight="700" fill="#111">DOCTOR</text>
  <rect x="28" y="130" width="192" height="42" rx="6" fill="#fff" stroke="#111" stroke-width="2"/><circle cx="52" cy="151" r="8" fill="#fff" stroke="#111" stroke-width="2"/><text x="72" y="156" font-family="Arial, sans-serif" font-size="13" font-weight="400" fill="#111">Dashboard</text><rect x="28" y="186" width="192" height="42" rx="6" fill="#f1f1f1" stroke="#111" stroke-width="2"/><circle cx="52" cy="207" r="8" fill="#fff" stroke="#111" stroke-width="2"/><text x="72" y="212" font-family="Arial, sans-serif" font-size="13" font-weight="700" fill="#111">Patients</text><rect x="28" y="242" width="192" height="42" rx="6" fill="#fff" stroke="#111" stroke-width="2"/><circle cx="52" cy="263" r="8" fill="#fff" stroke="#111" stroke-width="2"/><text x="72" y="268" font-family="Arial, sans-serif" font-size="13" font-weight="400" fill="#111">Schedule</text><rect x="28" y="298" width="192" height="42" rx="6" fill="#fff" stroke="#111" stroke-width="2"/><circle cx="52" cy="319" r="8" fill="#fff" stroke="#111" stroke-width="2"/><text x="72" y="324" font-family="Arial, sans-serif" font-size="13" font-weight="400" fill="#111">Consultation</text>
  <line x1="28" y1="920" x2="220" y2="920" stroke="#111" stroke-width="2" stroke-linecap="round"/>
  <text x="28" y="956" font-family="Arial, sans-serif" font-size="13" font-weight="700" fill="#111">Logout</text>
  <rect x="288" y="16" width="460" height="42" rx="6" fill="#fff" stroke="#111" stroke-width="2"/><text x="302" y="43" font-family="Arial, sans-serif" font-size="12" font-weight="400" fill="#555">Global search...</text>
  <rect x="1194" y="18" width="80" height="36" rx="6" fill="#fff" stroke="#111" stroke-width="2"/><text x="1234" y="41" font-family="Arial, sans-serif" font-size="12" font-weight="700" fill="#111" text-anchor="middle">Noti.</text>
  <circle cx="1316" cy="37" r="20" fill="#fff" stroke="#111" stroke-width="2"/>
  <rect x="1348" y="25" width="62" height="8" rx="0" fill="#111" stroke="#111" stroke-width="0"/><rect x="1348" y="39" width="42" height="8" rx="0" fill="#111" stroke="#111" stroke-width="0"/>
  <text x="288" y="134" font-family="Arial, sans-serif" font-size="28" font-weight="700" fill="#111">Patients</text><text x="288" y="162" font-family="Arial, sans-serif" font-size="13" font-weight="400" fill="#555">Quản lý danh sách bệnh nhân, trạng thái ca khám và hồ sơ liên quan.</text><rect x="288" y="194" width="1096" height="110" rx="10" fill="#fff" stroke="#111" stroke-width="2"/><text x="306" y="224" font-family="Arial, sans-serif" font-size="16" font-weight="700" fill="#111">Bộ lọc bệnh nhân</text><rect x="312" y="236" width="190" height="42" rx="6" fill="#fff" stroke="#111" stroke-width="2"/><text x="326" y="263" font-family="Arial, sans-serif" font-size="12" font-weight="400" fill="#555">Tìm bệnh nhân...</text><rect x="526" y="236" width="190" height="42" rx="6" fill="#fff" stroke="#111" stroke-width="2"/><text x="540" y="263" font-family="Arial, sans-serif" font-size="12" font-weight="400" fill="#555">Trạng thái</text><rect x="740" y="236" width="190" height="42" rx="6" fill="#fff" stroke="#111" stroke-width="2"/><text x="754" y="263" font-family="Arial, sans-serif" font-size="12" font-weight="400" fill="#555">Chuyên khoa</text><rect x="954" y="236" width="252" height="42" rx="6" fill="#fff" stroke="#111" stroke-width="2"/><text x="968" y="263" font-family="Arial, sans-serif" font-size="12" font-weight="400" fill="#555">Ngày khám</text><rect x="288" y="336" width="720" height="580" rx="10" fill="#fff" stroke="#111" stroke-width="2"/><text x="306" y="366" font-family="Arial, sans-serif" font-size="16" font-weight="700" fill="#111">Danh sách bệnh nhân</text><rect x="312" y="390" width="672" height="468" rx="8" fill="#fff" stroke="#111" stroke-width="2"/><rect x="312" y="390" width="672" height="44" rx="8" fill="#f7f7f7" stroke="#111" stroke-width="2"/><text x="330" y="418" font-family="Arial, sans-serif" font-size="12" font-weight="700" fill="#111">Table header</text><line x1="312" y1="434" x2="984" y2="434" stroke="#999" stroke-width="1" stroke-linecap="round"/><circle cx="340" cy="469" r="12" fill="#fff" stroke="#111" stroke-width="2"/><rect x="366" y="454" width="160" height="8" rx="0" fill="#111" stroke="#111" stroke-width="0"/><rect x="366" y="469" width="110" height="8" rx="0" fill="#111" stroke="#111" stroke-width="0"/><rect x="592" y="454" width="200" height="8" rx="0" fill="#111" stroke="#111" stroke-width="0"/><rect x="592" y="469" width="140" height="8" rx="0" fill="#111" stroke="#111" stroke-width="0"/><rect x="774" y="452" width="86" height="28" rx="14" fill="#fff" stroke="#111" stroke-width="2"/><text x="817" y="471" font-family="Arial, sans-serif" font-size="11" font-weight="700" fill="#111" text-anchor="middle">Status</text><rect x="874" y="448" width="82" height="36" rx="6" fill="#fff" stroke="#111" stroke-width="2"/><text x="915" y="471" font-family="Arial, sans-serif" font-size="12" font-weight="700" fill="#111" text-anchor="middle">Action</text><line x1="312" y1="504" x2="984" y2="504" stroke="#999" stroke-width="1" stroke-linecap="round"/><circle cx="340" cy="539" r="12" fill="#fff" stroke="#111" stroke-width="2"/><rect x="366" y="524" width="160" height="8" rx="0" fill="#111" stroke="#111" stroke-width="0"/><rect x="366" y="539" width="110" height="8" rx="0" fill="#111" stroke="#111" stroke-width="0"/><rect x="592" y="524" width="200" height="8" rx="0" fill="#111" stroke="#111" stroke-width="0"/><rect x="592" y="539" width="140" height="8" rx="0" fill="#111" stroke="#111" stroke-width="0"/><rect x="774" y="522" width="86" height="28" rx="14" fill="#fff" stroke="#111" stroke-width="2"/><text x="817" y="541" font-family="Arial, sans-serif" font-size="11" font-weight="700" fill="#111" text-anchor="middle">Status</text><rect x="874" y="518" width="82" height="36" rx="6" fill="#fff" stroke="#111" stroke-width="2"/><text x="915" y="541" font-family="Arial, sans-serif" font-size="12" font-weight="700" fill="#111" text-anchor="middle">Action</text><line x1="312" y1="574" x2="984" y2="574" stroke="#999" stroke-width="1" stroke-linecap="round"/><circle cx="340" cy="609" r="12" fill="#fff" stroke="#111" stroke-width="2"/><rect x="366" y="594" width="160" height="8" rx="0" fill="#111" stroke="#111" stroke-width="0"/><rect x="366" y="609" width="110" height="8" rx="0" fill="#111" stroke="#111" stroke-width="0"/><rect x="592" y="594" width="200" height="8" rx="0" fill="#111" stroke="#111" stroke-width="0"/><rect x="592" y="609" width="140" height="8" rx="0" fill="#111" stroke="#111" stroke-width="0"/><rect x="774" y="592" width="86" height="28" rx="14" fill="#fff" stroke="#111" stroke-width="2"/><text x="817" y="611" font-family="Arial, sans-serif" font-size="11" font-weight="700" fill="#111" text-anchor="middle">Status</text><rect x="874" y="588" width="82" height="36" rx="6" fill="#fff" stroke="#111" stroke-width="2"/><text x="915" y="611" font-family="Arial, sans-serif" font-size="12" font-weight="700" fill="#111" text-anchor="middle">Action</text><line x1="312" y1="644" x2="984" y2="644" stroke="#999" stroke-width="1" stroke-linecap="round"/><circle cx="340" cy="679" r="12" fill="#fff" stroke="#111" stroke-width="2"/><rect x="366" y="664" width="160" height="8" rx="0" fill="#111" stroke="#111" stroke-width="0"/><rect x="366" y="679" width="110" height="8" rx="0" fill="#111" stroke="#111" stroke-width="0"/><rect x="592" y="664" width="200" height="8" rx="0" fill="#111" stroke="#111" stroke-width="0"/><rect x="592" y="679" width="140" height="8" rx="0" fill="#111" stroke="#111" stroke-width="0"/><rect x="774" y="662" width="86" height="28" rx="14" fill="#fff" stroke="#111" stroke-width="2"/><text x="817" y="681" font-family="Arial, sans-serif" font-size="11" font-weight="700" fill="#111" text-anchor="middle">Status</text><rect x="874" y="658" width="82" height="36" rx="6" fill="#fff" stroke="#111" stroke-width="2"/><text x="915" y="681" font-family="Arial, sans-serif" font-size="12" font-weight="700" fill="#111" text-anchor="middle">Action</text><line x1="312" y1="714" x2="984" y2="714" stroke="#999" stroke-width="1" stroke-linecap="round"/><circle cx="340" cy="749" r="12" fill="#fff" stroke="#111" stroke-width="2"/><rect x="366" y="734" width="160" height="8" rx="0" fill="#111" stroke="#111" stroke-width="0"/><rect x="366" y="749" width="110" height="8" rx="0" fill="#111" stroke="#111" stroke-width="0"/><rect x="592" y="734" width="200" height="8" rx="0" fill="#111" stroke="#111" stroke-width="0"/><rect x="592" y="749" width="140" height="8" rx="0" fill="#111" stroke="#111" stroke-width="0"/><rect x="774" y="732" width="86" height="28" rx="14" fill="#fff" stroke="#111" stroke-width="2"/><text x="817" y="751" font-family="Arial, sans-serif" font-size="11" font-weight="700" fill="#111" text-anchor="middle">Status</text><rect x="874" y="728" width="82" height="36" rx="6" fill="#fff" stroke="#111" stroke-width="2"/><text x="915" y="751" font-family="Arial, sans-serif" font-size="12" font-weight="700" fill="#111" text-anchor="middle">Action</text><line x1="312" y1="784" x2="984" y2="784" stroke="#999" stroke-width="1" stroke-linecap="round"/><circle cx="340" cy="819" r="12" fill="#fff" stroke="#111" stroke-width="2"/><rect x="366" y="804" width="160" height="8" rx="0" fill="#111" stroke="#111" stroke-width="0"/><rect x="366" y="819" width="110" height="8" rx="0" fill="#111" stroke="#111" stroke-width="0"/><rect x="592" y="804" width="200" height="8" rx="0" fill="#111" stroke="#111" stroke-width="0"/><rect x="592" y="819" width="140" height="8" rx="0" fill="#111" stroke="#111" stroke-width="0"/><rect x="774" y="802" width="86" height="28" rx="14" fill="#fff" stroke="#111" stroke-width="2"/><text x="817" y="821" font-family="Arial, sans-serif" font-size="11" font-weight="700" fill="#111" text-anchor="middle">Status</text><rect x="874" y="798" width="82" height="36" rx="6" fill="#fff" stroke="#111" stroke-width="2"/><text x="915" y="821" font-family="Arial, sans-serif" font-size="12" font-weight="700" fill="#111" text-anchor="middle">Action</text><rect x="1040" y="336" width="344" height="580" rx="10" fill="#fff" stroke="#111" stroke-width="2"/><text x="1058" y="366" font-family="Arial, sans-serif" font-size="16" font-weight="700" fill="#111">Chi tiết bệnh nhân</text><rect x="1070" y="392" width="112" height="88" rx="0" fill="#fff" stroke="#111" stroke-width="2"/><line x1="1078" y1="400" x2="1174" y2="472" stroke="#111" stroke-width="2" stroke-linecap="round"/><line x1="1174" y1="400" x2="1078" y2="472" stroke="#111" stroke-width="2" stroke-linecap="round"/><rect x="1208" y="402" width="150" height="8" rx="0" fill="#111" stroke="#111" stroke-width="0"/><rect x="1208" y="416" width="210" height="8" rx="0" fill="#111" stroke="#111" stroke-width="0"/><rect x="1208" y="430" width="180" height="8" rx="0" fill="#111" stroke="#111" stroke-width="0"/><line x1="1070" y1="520" x2="1350" y2="520" stroke="#111" stroke-width="2" stroke-linecap="round"/><rect x="1070" y="558" width="250" height="8" rx="0" fill="#111" stroke="#111" stroke-width="0"/><rect x="1070" y="582" width="220" height="8" rx="0" fill="#111" stroke="#111" stroke-width="0"/><rect x="1070" y="606" width="260" height="8" rx="0" fill="#111" stroke="#111" stroke-width="0"/><rect x="1070" y="630" width="180" height="8" rx="0" fill="#111" stroke="#111" stroke-width="0"/><rect x="1070" y="818" width="118" height="36" rx="6" fill="#fff" stroke="#111" stroke-width="2"/><text x="1129" y="841" font-family="Arial, sans-serif" font-size="12" font-weight="700" fill="#111" text-anchor="middle">Tư vấn</text><rect x="1208" y="818" width="118" height="36" rx="6" fill="#fff" stroke="#111" stroke-width="2"/><text x="1267" y="841" font-family="Arial, sans-serif" font-size="12" font-weight="700" fill="#111" text-anchor="middle">Bệnh án</text>
  </svg>