<svg xmlns="http://www.w3.org/2000/svg" width="1440" height="1024" viewBox="0 0 1440 1024">
  <title>Admin - Revenue</title>
  <rect width="1440" height="1024" fill="#f6f6f6"/>
  <rect x="16" y="14" width="1408" height="996" rx="0" fill="#fff" stroke="#333" stroke-width="3"/>
  <rect x="22" y="20" width="1396" height="36" rx="0" fill="#cfcfcf" stroke="#444" stroke-width="2"/>
  <text x="720" y="44" font-family="Arial, sans-serif" font-size="18" font-weight="700" fill="#444" text-anchor="middle">Admin - Revenue</text>
  <line x1="1386" y1="28" x2="1406" y2="48" stroke="#444" stroke-width="3" stroke-linecap="round"/><line x1="1406" y1="28" x2="1386" y2="48" stroke="#444" stroke-width="3" stroke-linecap="round"/>
  <rect x="22" y="60" width="1396" height="56" rx="0" fill="#f4f4f4" stroke="#444" stroke-width="2"/>
  <rect x="34" y="70" width="48" height="36" rx="7" fill="#e8e8e8" stroke="#555" stroke-width="2"/><text x="58" y="93" font-family="Arial, sans-serif" font-size="24" font-weight="700" fill="#333" text-anchor="middle">‹</text><rect x="86" y="70" width="48" height="36" rx="7" fill="#e8e8e8" stroke="#555" stroke-width="2"/><text x="110" y="93" font-family="Arial, sans-serif" font-size="24" font-weight="700" fill="#333" text-anchor="middle">›</text><rect x="140" y="70" width="50" height="36" rx="7" fill="#e8e8e8" stroke="#555" stroke-width="2"/><text x="165" y="93" font-family="Arial, sans-serif" font-size="20" font-weight="700" fill="#333" text-anchor="middle">↻</text>
  <rect x="204" y="70" width="1196" height="36" rx="15" fill="#fff" stroke="#666" stroke-width="2"/><text x="220" y="93" font-family="Arial, sans-serif" font-size="13" font-weight="400" fill="#777">https://medconsult.vn/admin/revenue</text>
  <rect x="36" y="128" width="232" height="870" rx="0" fill="#e9e9e9" stroke="#444" stroke-width="2"/>
  <rect x="70" y="154" width="150" height="58" rx="0" fill="#fff" stroke="#444" stroke-width="2"/><line x1="76" y1="160" x2="214" y2="206" stroke="#444" stroke-width="2" stroke-linecap="round"/><line x1="214" y1="160" x2="76" y2="206" stroke="#444" stroke-width="2" stroke-linecap="round"/>
  <text x="70" y="238" font-family="Arial, sans-serif" font-size="13" font-weight="700" fill="#555">ADMIN</text>
  <circle cx="76" cy="188" r="9" fill="#fff" stroke="#444" stroke-width="2"/><text x="96" y="193" font-family="Arial, sans-serif" font-size="13" font-weight="400" fill="#333">Cơ sở</text><circle cx="76" cy="242" r="9" fill="#fff" stroke="#444" stroke-width="2"/><text x="96" y="247" font-family="Arial, sans-serif" font-size="13" font-weight="400" fill="#333">Bác sĩ</text><circle cx="76" cy="296" r="9" fill="#fff" stroke="#444" stroke-width="2"/><text x="96" y="301" font-family="Arial, sans-serif" font-size="13" font-weight="400" fill="#333">Ca khám</text><circle cx="76" cy="350" r="9" fill="#fff" stroke="#444" stroke-width="2"/><text x="96" y="355" font-family="Arial, sans-serif" font-size="13" font-weight="400" fill="#333">Bảng giá</text><rect x="54" y="384" width="166" height="40" rx="6" fill="#e5e5e5" stroke="#555" stroke-width="2"/><circle cx="76" cy="404" r="9" fill="#888" stroke="#444" stroke-width="2"/><text x="96" y="409" font-family="Arial, sans-serif" font-size="13" font-weight="700" fill="#333">Doanh thu</text><circle cx="76" cy="458" r="9" fill="#fff" stroke="#444" stroke-width="2"/><text x="96" y="463" font-family="Arial, sans-serif" font-size="13" font-weight="400" fill="#333">Chất lượng</text>
  <text x="58" y="846" font-family="Arial, sans-serif" font-size="16" font-weight="700" fill="#333">Ghi chú</text><rect x="58" y="870" width="160" height="8" rx="1" fill="#888" stroke="#888" stroke-width="1"/><rect x="58" y="886" width="120" height="8" rx="1" fill="#888" stroke="#888" stroke-width="1"/><rect x="58" y="902" width="148" height="8" rx="1" fill="#888" stroke="#888" stroke-width="1"/><rect x="58" y="918" width="130" height="8" rx="1" fill="#888" stroke="#888" stroke-width="1"/>
  <rect x="288" y="128" width="1116" height="870" rx="0" fill="#fff" stroke="#444" stroke-width="2"/>
  <text x="296" y="154" font-family="Arial, sans-serif" font-size="24" font-weight="700" fill="#333">Báo cáo doanh thu</text><rect x="1196" y="136" width="164" height="36" rx="7" fill="#e8e8e8" stroke="#555" stroke-width="2"/><text x="1278" y="159" font-family="Arial, sans-serif" font-size="13" font-weight="700" fill="#333" text-anchor="middle">Xuất báo cáo</text><rect x="296" y="194" width="238" height="92" rx="8" fill="#fff" stroke="#555" stroke-width="2"/><text x="316" y="226" font-family="Arial, sans-serif" font-size="13" font-weight="700" fill="#333">Tổng doanh thu</text><text x="316" y="264" font-family="Arial, sans-serif" font-size="26" font-weight="700" fill="#333">1.284 tỷ</text><rect x="556" y="194" width="238" height="92" rx="8" fill="#fff" stroke="#555" stroke-width="2"/><text x="576" y="226" font-family="Arial, sans-serif" font-size="13" font-weight="700" fill="#333">Số lượt khám</text><text x="576" y="264" font-family="Arial, sans-serif" font-size="26" font-weight="700" fill="#333">3,450</text><rect x="816" y="194" width="238" height="92" rx="8" fill="#fff" stroke="#555" stroke-width="2"/><text x="836" y="226" font-family="Arial, sans-serif" font-size="13" font-weight="700" fill="#333">Giá trị TB</text><text x="836" y="264" font-family="Arial, sans-serif" font-size="26" font-weight="700" fill="#333">372k</text><rect x="1076" y="194" width="238" height="92" rx="8" fill="#fff" stroke="#555" stroke-width="2"/><text x="1096" y="226" font-family="Arial, sans-serif" font-size="13" font-weight="700" fill="#333">Bệnh nhân mới</text><text x="1096" y="264" font-family="Arial, sans-serif" font-size="26" font-weight="700" fill="#333">412</text><rect x="296" y="326" width="620" height="340" rx="8" fill="#fff" stroke="#555" stroke-width="2"/><text x="314" y="356" font-family="Arial, sans-serif" font-size="17" font-weight="700" fill="#333">Doanh thu theo thời gian</text><rect x="666" y="356" width="120" height="36" rx="7" fill="#e8e8e8" stroke="#555" stroke-width="2"/><text x="726" y="379" font-family="Arial, sans-serif" font-size="13" font-weight="700" fill="#333" text-anchor="middle">Tất cả cơ sở</text><rect x="348" y="506" width="34" height="120" rx="6" fill="#cfcfcf" stroke="#888" stroke-width="2"/><rect x="430" y="466" width="34" height="160" rx="6" fill="#cfcfcf" stroke="#888" stroke-width="2"/><rect x="512" y="436" width="34" height="190" rx="6" fill="#cfcfcf" stroke="#888" stroke-width="2"/><rect x="594" y="406" width="34" height="220" rx="6" fill="#cfcfcf" stroke="#888" stroke-width="2"/><rect x="676" y="376" width="34" height="250" rx="6" fill="#cfcfcf" stroke="#888" stroke-width="2"/><rect x="758" y="356" width="34" height="270" rx="6" fill="#cfcfcf" stroke="#888" stroke-width="2"/><text x="364" y="644" font-family="Arial, sans-serif" font-size="10" font-weight="400" fill="#333" text-anchor="middle">T1/2025</text><text x="446" y="644" font-family="Arial, sans-serif" font-size="10" font-weight="400" fill="#333" text-anchor="middle">T2/2025</text><text x="528" y="644" font-family="Arial, sans-serif" font-size="10" font-weight="400" fill="#333" text-anchor="middle">T3/2025</text><text x="610" y="644" font-family="Arial, sans-serif" font-size="10" font-weight="400" fill="#333" text-anchor="middle">T4/2025</text><text x="692" y="644" font-family="Arial, sans-serif" font-size="10" font-weight="400" fill="#333" text-anchor="middle">T5/2025</text><text x="774" y="644" font-family="Arial, sans-serif" font-size="10" font-weight="400" fill="#333" text-anchor="middle">T6/2025</text><rect x="946" y="326" width="390" height="340" rx="8" fill="#fff" stroke="#555" stroke-width="2"/><text x="964" y="356" font-family="Arial, sans-serif" font-size="17" font-weight="700" fill="#333">Xu hướng tăng trưởng</text><polyline points="986,590 1046,560 1106,546 1166,520 1226,490 1286,474" fill="none" stroke="#555" stroke-width="4"/><circle cx="986" cy="590" r="7" fill="#fff" stroke="#444" stroke-width="2"/><circle cx="1046" cy="560" r="7" fill="#fff" stroke="#444" stroke-width="2"/><circle cx="1106" cy="546" r="7" fill="#fff" stroke="#444" stroke-width="2"/><circle cx="1166" cy="520" r="7" fill="#fff" stroke="#444" stroke-width="2"/><circle cx="1226" cy="490" r="7" fill="#fff" stroke="#444" stroke-width="2"/><circle cx="1286" cy="474" r="7" fill="#fff" stroke="#444" stroke-width="2"/><rect x="296" y="700" width="1040" height="150" rx="8" fill="#fff" stroke="#555" stroke-width="2"/><text x="314" y="730" font-family="Arial, sans-serif" font-size="17" font-weight="700" fill="#333">Doanh thu theo chuyên khoa</text><rect x="326" y="750" width="920" height="8" rx="1" fill="#888" stroke="#888" stroke-width="1"/><rect x="326" y="766" width="760" height="8" rx="1" fill="#888" stroke="#888" stroke-width="1"/><rect x="326" y="782" width="640" height="8" rx="1" fill="#888" stroke="#888" stroke-width="1"/><rect x="326" y="798" width="420" height="8" rx="1" fill="#888" stroke="#888" stroke-width="1"/>
  </svg>