<svg xmlns="http://www.w3.org/2000/svg" width="1440" height="1024" viewBox="0 0 1440 1024">
  <title>Patient - Dashboard</title>
  <rect width="1440" height="1024" fill="#f8fafc"/>
  <g id="Sidebar"><rect x="0" y="0" width="236" height="1024" rx="0" fill="#ffffff" stroke="#cbd5e1" stroke-width="1.3"/>
    <rect x="20" y="24" width="36" height="36" rx="6" fill="#e2e8f0" stroke="#94a3b8" stroke-width="1.3"/>
    <text x="68" y="43" font-family="Arial, sans-serif" font-size="17" font-weight="700" fill="#334155">MedConsult</text>
    <text x="68" y="57" font-family="Arial, sans-serif" font-size="10" font-weight="400" fill="#64748b">Hệ thống tư vấn y tế</text>
    <text x="22" y="110" font-family="Arial, sans-serif" font-size="10" font-weight="700" fill="#94a3b8">BỆNH NHÂN</text>
    <rect x="18" y="125" width="200" height="40" rx="7" fill="#e2e8f0" stroke="#94a3b8" stroke-width="1.3"/><circle cx="39" cy="145" r="9" fill="#94a3b8" stroke="#94a3b8" stroke-width="1.2"/><text x="60" y="150" font-family="Arial, sans-serif" font-size="13" font-weight="700" fill="#334155">Dashboard</text><circle cx="39" cy="197" r="9" fill="#ffffff" stroke="#94a3b8" stroke-width="1.2"/><text x="60" y="202" font-family="Arial, sans-serif" font-size="13" font-weight="400" fill="#334155">Chat tư vấn</text><circle cx="39" cy="249" r="9" fill="#ffffff" stroke="#94a3b8" stroke-width="1.2"/><text x="60" y="254" font-family="Arial, sans-serif" font-size="13" font-weight="400" fill="#334155">Tư vấn trực tuyến</text><circle cx="39" cy="301" r="9" fill="#ffffff" stroke="#94a3b8" stroke-width="1.2"/><text x="60" y="306" font-family="Arial, sans-serif" font-size="13" font-weight="400" fill="#334155">Đặt lịch khám</text><circle cx="39" cy="353" r="9" fill="#ffffff" stroke="#94a3b8" stroke-width="1.2"/><text x="60" y="358" font-family="Arial, sans-serif" font-size="13" font-weight="400" fill="#334155">Bảng giá dịch vụ</text><circle cx="39" cy="405" r="9" fill="#ffffff" stroke="#94a3b8" stroke-width="1.2"/><text x="60" y="410" font-family="Arial, sans-serif" font-size="13" font-weight="400" fill="#334155">Hồ sơ bệnh án</text>
    <line x1="20" y1="944" x2="216" y2="944" stroke="#e2e8f0" stroke-width="1.2" stroke-linecap="round"/>
    <text x="28" y="978" font-family="Arial, sans-serif" font-size="13" font-weight="700" fill="#334155">Đăng xuất</text></g>
  <g id="Topbar"><rect x="236" y="0" width="1204" height="72" rx="0" fill="#ffffff" stroke="#cbd5e1" stroke-width="1.3"/>
    <text x="276" y="31" font-family="Arial, sans-serif" font-size="13" font-weight="700" fill="#334155">Bệnh nhân</text>
    <text x="276" y="48" font-family="Arial, sans-serif" font-size="10" font-weight="400" fill="#94a3b8">Không gian làm việc MedConsult</text>
    <circle cx="1262" cy="36" r="16" fill="#ffffff" stroke="#94a3b8" stroke-width="1.2"/><text x="1262" y="41" font-family="Arial, sans-serif" font-size="15" font-weight="400" fill="#334155" text-anchor="middle">○</text>
    <circle cx="1310" cy="36" r="18" fill="#e2e8f0" stroke="#94a3b8" stroke-width="1.2"/><text x="1310" y="41" font-family="Arial, sans-serif" font-size="10" font-weight="700" fill="#334155" text-anchor="middle">TM</text>
    <text x="1340" y="32" font-family="Arial, sans-serif" font-size="12" font-weight="700" fill="#334155">Trần Thị Mai</text><text x="1340" y="48" font-family="Arial, sans-serif" font-size="10" font-weight="400" fill="#94a3b8">Sẵn sàng</text></g>
  <g id="Content"><text x="276" y="116" font-family="Arial, sans-serif" font-size="10" font-weight="700" fill="#64748b">TỔNG QUAN SỨC KHỎE</text>
    <text x="276" y="146" font-family="Arial, sans-serif" font-size="26" font-weight="700" fill="#0f172a">Dashboard bệnh nhân</text>
    <text x="276" y="170" font-family="Arial, sans-serif" font-size="12" font-weight="400" fill="#64748b">Theo dõi lịch hẹn, các ca khám gần đây và nhắc nhở điều trị.</text><rect x="276" y="204" width="356" height="112" rx="10" fill="#ffffff" stroke="#cbd5e1" stroke-width="1.3"/><circle cx="314" cy="242" r="18" fill="#e2e8f0" stroke="#94a3b8" stroke-width="1.2"/><text x="344" y="238" font-family="Arial, sans-serif" font-size="12" font-weight="400" fill="#64748b">Ca khám lịch hẹn</text><text x="344" y="268" font-family="Arial, sans-serif" font-size="27" font-weight="700" fill="#334155">02</text><text x="294" y="298" font-family="Arial, sans-serif" font-size="11" font-weight="400" fill="#64748b">1 lịch trong ngày mai</text><rect x="660" y="204" width="356" height="112" rx="10" fill="#ffffff" stroke="#cbd5e1" stroke-width="1.3"/><circle cx="698" cy="242" r="18" fill="#e2e8f0" stroke="#94a3b8" stroke-width="1.2"/><text x="728" y="238" font-family="Arial, sans-serif" font-size="12" font-weight="400" fill="#64748b">Đã khám xong</text><text x="728" y="268" font-family="Arial, sans-serif" font-size="27" font-weight="700" fill="#334155">05</text><text x="678" y="298" font-family="Arial, sans-serif" font-size="11" font-weight="400" fill="#64748b">Đã hoàn tất 1 phiên tuần này</text><rect x="1044" y="204" width="356" height="112" rx="10" fill="#ffffff" stroke="#cbd5e1" stroke-width="1.3"/><circle cx="1082" cy="242" r="18" fill="#e2e8f0" stroke="#94a3b8" stroke-width="1.2"/><text x="1112" y="238" font-family="Arial, sans-serif" font-size="12" font-weight="400" fill="#64748b">Nhắc tái khám</text><text x="1112" y="268" font-family="Arial, sans-serif" font-size="27" font-weight="700" fill="#334155">03</text><text x="1062" y="298" font-family="Arial, sans-serif" font-size="11" font-weight="400" fill="#64748b">Còn 2 nhắc trong tháng</text><rect x="276" y="344" width="548" height="234" rx="10" fill="#ffffff" stroke="#cbd5e1" stroke-width="1.3"/><text x="294" y="372" font-family="Arial, sans-serif" font-size="15" font-weight="700" fill="#334155">Chỉ số sức khỏe</text><rect x="294" y="388" width="512" height="66" rx="7" fill="#f8fafc" stroke="#e2e8f0" stroke-width="1.3"/><circle cx="322" cy="421" r="15" fill="#e2e8f0" stroke="#94a3b8" stroke-width="1.2"/><text x="348" y="414" font-family="Arial, sans-serif" font-size="13" font-weight="700" fill="#334155">Nhịp tim</text><text x="348" y="435" font-family="Arial, sans-serif" font-size="11" font-weight="400" fill="#64748b">72 bpm · Bình thường</text><rect x="700" y="408" width="90" height="26" rx="13" fill="#f8fafc" stroke="#cbd5e1" stroke-width="1.3"/><text x="745" y="426" font-family="Arial, sans-serif" font-size="11" font-weight="700" fill="#475569" text-anchor="middle">Hôm nay</text><rect x="294" y="466" width="512" height="66" rx="7" fill="#f8fafc" stroke="#e2e8f0" stroke-width="1.3"/><circle cx="322" cy="499" r="15" fill="#e2e8f0" stroke="#94a3b8" stroke-width="1.2"/><text x="348" y="492" font-family="Arial, sans-serif" font-size="13" font-weight="700" fill="#334155">Cân nặng</text><text x="348" y="513" font-family="Arial, sans-serif" font-size="11" font-weight="400" fill="#64748b">63.5 kg · Ổn định</text><rect x="700" y="486" width="90" height="26" rx="13" fill="#f8fafc" stroke="#cbd5e1" stroke-width="1.3"/><text x="745" y="504" font-family="Arial, sans-serif" font-size="11" font-weight="700" fill="#475569" text-anchor="middle">1 tháng</text><rect x="844" y="344" width="556" height="234" rx="10" fill="#ffffff" stroke="#cbd5e1" stroke-width="1.3"/><text x="862" y="372" font-family="Arial, sans-serif" font-size="15" font-weight="700" fill="#334155">Thông tin y tế</text><rect x="862" y="388" width="520" height="66" rx="7" fill="#f8fafc" stroke="#e2e8f0" stroke-width="1.3"/><circle cx="890" cy="421" r="15" fill="#e2e8f0" stroke="#94a3b8" stroke-width="1.2"/><text x="916" y="414" font-family="Arial, sans-serif" font-size="13" font-weight="700" fill="#334155">Lịch sử bệnh</text><text x="916" y="435" font-family="Arial, sans-serif" font-size="11" font-weight="400" fill="#64748b">Viêm họng cấp · Theo dõi tim mạch</text><rect x="862" y="466" width="520" height="66" rx="7" fill="#f8fafc" stroke="#e2e8f0" stroke-width="1.3"/><circle cx="890" cy="499" r="15" fill="#e2e8f0" stroke="#94a3b8" stroke-width="1.2"/><text x="916" y="492" font-family="Arial, sans-serif" font-size="13" font-weight="700" fill="#334155">Dị ứng</text><text x="916" y="513" font-family="Arial, sans-serif" font-size="11" font-weight="400" fill="#64748b">Không có dị ứng thuốc được ghi nhận</text><rect x="276" y="598" width="672" height="198" rx="10" fill="#ffffff" stroke="#cbd5e1" stroke-width="1.3"/><text x="294" y="626" font-family="Arial, sans-serif" font-size="15" font-weight="700" fill="#334155">Ca khám lịch hẹn</text><rect x="294" y="642" width="636" height="66" rx="7" fill="#f8fafc" stroke="#e2e8f0" stroke-width="1.3"/><circle cx="322" cy="675" r="15" fill="#e2e8f0" stroke="#94a3b8" stroke-width="1.2"/><text x="348" y="668" font-family="Arial, sans-serif" font-size="13" font-weight="700" fill="#334155">09:00 · Phòng khám Đa khoa Tâm An</text><text x="348" y="689" font-family="Arial, sans-serif" font-size="11" font-weight="400" fill="#64748b">BS. Nguyễn Văn Minh · Khám trực tiếp</text><rect x="824" y="662" width="90" height="26" rx="13" fill="#f8fafc" stroke="#cbd5e1" stroke-width="1.3"/><text x="869" y="680" font-family="Arial, sans-serif" font-size="11" font-weight="700" fill="#475569" text-anchor="middle">22/05</text><rect x="294" y="716" width="636" height="66" rx="7" fill="#f8fafc" stroke="#e2e8f0" stroke-width="1.3"/><circle cx="322" cy="749" r="15" fill="#e2e8f0" stroke="#94a3b8" stroke-width="1.2"/><text x="348" y="742" font-family="Arial, sans-serif" font-size="13" font-weight="700" fill="#334155">14:00 · Phòng khám Tim mạch An Bình</text><text x="348" y="763" font-family="Arial, sans-serif" font-size="11" font-weight="400" fill="#64748b">BS. Trần Thị Hoa · Tư vấn trực tuyến</text><rect x="824" y="736" width="90" height="26" rx="13" fill="#f8fafc" stroke="#cbd5e1" stroke-width="1.3"/><text x="869" y="754" font-family="Arial, sans-serif" font-size="11" font-weight="700" fill="#475569" text-anchor="middle">23/05</text><rect x="968" y="598" width="432" height="198" rx="10" fill="#ffffff" stroke="#cbd5e1" stroke-width="1.3"/><text x="986" y="626" font-family="Arial, sans-serif" font-size="15" font-weight="700" fill="#334155">Nhắc nhở điều trị</text><rect x="986" y="646" width="380" height="5" rx="2" fill="#e2e8f0" stroke="#e2e8f0" stroke-width="1.3"/><rect x="986" y="658" width="273.59999999999997" height="5" rx="2" fill="#e2e8f0" stroke="#e2e8f0" stroke-width="1.3"/><rect x="986" y="696" width="380" height="5" rx="2" fill="#e2e8f0" stroke="#e2e8f0" stroke-width="1.3"/><rect x="986" y="708" width="273.59999999999997" height="5" rx="2" fill="#e2e8f0" stroke="#e2e8f0" stroke-width="1.3"/><rect x="986" y="746" width="380" height="5" rx="2" fill="#e2e8f0" stroke="#e2e8f0" stroke-width="1.3"/><rect x="986" y="758" width="273.59999999999997" height="5" rx="2" fill="#e2e8f0" stroke="#e2e8f0" stroke-width="1.3"/></g>
</svg>