<svg xmlns="http://www.w3.org/2000/svg" width="1440" height="1024" viewBox="0 0 1440 1024">
  <title>Patient - Online Consultations</title>
  <rect width="1440" height="1024" fill="#f8fafc"/>
  <g id="Sidebar"><rect x="0" y="0" width="236" height="1024" rx="0" fill="#ffffff" stroke="#cbd5e1" stroke-width="1.3"/>
    <rect x="20" y="24" width="36" height="36" rx="6" fill="#e2e8f0" stroke="#94a3b8" stroke-width="1.3"/>
    <text x="68" y="43" font-family="Arial, sans-serif" font-size="17" font-weight="700" fill="#334155">MedConsult</text>
    <text x="68" y="57" font-family="Arial, sans-serif" font-size="10" font-weight="400" fill="#64748b">Hệ thống tư vấn y tế</text>
    <text x="22" y="110" font-family="Arial, sans-serif" font-size="10" font-weight="700" fill="#94a3b8">BỆNH NHÂN</text>
    <circle cx="39" cy="145" r="9" fill="#ffffff" stroke="#94a3b8" stroke-width="1.2"/><text x="60" y="150" font-family="Arial, sans-serif" font-size="13" font-weight="400" fill="#334155">Dashboard</text><circle cx="39" cy="197" r="9" fill="#ffffff" stroke="#94a3b8" stroke-width="1.2"/><text x="60" y="202" font-family="Arial, sans-serif" font-size="13" font-weight="400" fill="#334155">Chat tư vấn</text><rect x="18" y="229" width="200" height="40" rx="7" fill="#e2e8f0" stroke="#94a3b8" stroke-width="1.3"/><circle cx="39" cy="249" r="9" fill="#94a3b8" stroke="#94a3b8" stroke-width="1.2"/><text x="60" y="254" font-family="Arial, sans-serif" font-size="13" font-weight="700" fill="#334155">Tư vấn trực tuyến</text><circle cx="39" cy="301" r="9" fill="#ffffff" stroke="#94a3b8" stroke-width="1.2"/><text x="60" y="306" font-family="Arial, sans-serif" font-size="13" font-weight="400" fill="#334155">Đặt lịch khám</text><circle cx="39" cy="353" r="9" fill="#ffffff" stroke="#94a3b8" stroke-width="1.2"/><text x="60" y="358" font-family="Arial, sans-serif" font-size="13" font-weight="400" fill="#334155">Bảng giá dịch vụ</text><circle cx="39" cy="405" r="9" fill="#ffffff" stroke="#94a3b8" stroke-width="1.2"/><text x="60" y="410" font-family="Arial, sans-serif" font-size="13" font-weight="400" fill="#334155">Hồ sơ bệnh án</text>
    <line x1="20" y1="944" x2="216" y2="944" stroke="#e2e8f0" stroke-width="1.2" stroke-linecap="round"/>
    <text x="28" y="978" font-family="Arial, sans-serif" font-size="13" font-weight="700" fill="#334155">Đăng xuất</text></g>
  <g id="Topbar"><rect x="236" y="0" width="1204" height="72" rx="0" fill="#ffffff" stroke="#cbd5e1" stroke-width="1.3"/>
    <text x="276" y="31" font-family="Arial, sans-serif" font-size="13" font-weight="700" fill="#334155">Bệnh nhân</text>
    <text x="276" y="48" font-family="Arial, sans-serif" font-size="10" font-weight="400" fill="#94a3b8">Không gian làm việc MedConsult</text>
    <circle cx="1262" cy="36" r="16" fill="#ffffff" stroke="#94a3b8" stroke-width="1.2"/><text x="1262" y="41" font-family="Arial, sans-serif" font-size="15" font-weight="400" fill="#334155" text-anchor="middle">○</text>
    <circle cx="1310" cy="36" r="18" fill="#e2e8f0" stroke="#94a3b8" stroke-width="1.2"/><text x="1310" y="41" font-family="Arial, sans-serif" font-size="10" font-weight="700" fill="#334155" text-anchor="middle">TM</text>
    <text x="1340" y="32" font-family="Arial, sans-serif" font-size="12" font-weight="700" fill="#334155">Trần Thị Mai</text><text x="1340" y="48" font-family="Arial, sans-serif" font-size="10" font-weight="400" fill="#94a3b8">Sẵn sàng</text></g>
  <g id="Content"><rect x="276" y="104" width="1124" height="146" rx="12" fill="#f1f5f9" stroke="#cbd5e1" stroke-width="1.3"/><text x="304" y="136" font-family="Arial, sans-serif" font-size="10" font-weight="700" fill="#334155">TƯ VẤN BẢO MẬT CÙNG BÁC SĨ MEDCONSULT</text><text x="304" y="178" font-family="Arial, sans-serif" font-size="28" font-weight="700" fill="#334155">Tư vấn trực tuyến</text><text x="304" y="208" font-family="Arial, sans-serif" font-size="13" font-weight="400" fill="#64748b">Chọn một cuộc trò chuyện để tiếp tục trao đổi với bác sĩ.</text><rect x="1190" y="156" width="178" height="36" rx="6" fill="#e2e8f0" stroke="#94a3b8" stroke-width="1.3"/><text x="1279" y="179" font-family="Arial, sans-serif" font-size="12" font-weight="700" fill="#334155" text-anchor="middle">Bắt đầu tư vấn mới</text><rect x="276" y="274" width="510" height="38" rx="6" fill="#ffffff" stroke="#cbd5e1" stroke-width="1.3"/><text x="289" y="298" font-family="Arial, sans-serif" font-size="12" font-weight="400" fill="#94a3b8">Tìm bác sĩ hoặc cuộc trò chuyện...</text><rect x="978" y="274" width="132" height="36" rx="6" fill="#e2e8f0" stroke="#94a3b8" stroke-width="1.3"/><text x="1044" y="297" font-family="Arial, sans-serif" font-size="12" font-weight="700" fill="#334155" text-anchor="middle">Đang tiếp nhận</text><rect x="1118" y="274" width="120" height="36" rx="6" fill="#ffffff" stroke="#94a3b8" stroke-width="1.3"/><text x="1178" y="297" font-family="Arial, sans-serif" font-size="12" font-weight="700" fill="#334155" text-anchor="middle">Đã hoàn thành</text><rect x="1246" y="274" width="84" height="36" rx="6" fill="#ffffff" stroke="#94a3b8" stroke-width="1.3"/><text x="1288" y="297" font-family="Arial, sans-serif" font-size="12" font-weight="700" fill="#334155" text-anchor="middle">Tất cả</text><rect x="276" y="342" width="356" height="112" rx="10" fill="#ffffff" stroke="#cbd5e1" stroke-width="1.3"/><circle cx="314" cy="380" r="18" fill="#e2e8f0" stroke="#94a3b8" stroke-width="1.2"/><text x="344" y="376" font-family="Arial, sans-serif" font-size="12" font-weight="400" fill="#64748b">Cuộc trò chuyện hiển thị</text><text x="344" y="406" font-family="Arial, sans-serif" font-size="27" font-weight="700" fill="#334155">03</text><text x="294" y="436" font-family="Arial, sans-serif" font-size="11" font-weight="400" fill="#64748b">Các phiên đang lọc</text><rect x="660" y="342" width="356" height="112" rx="10" fill="#ffffff" stroke="#cbd5e1" stroke-width="1.3"/><circle cx="698" cy="380" r="18" fill="#e2e8f0" stroke="#94a3b8" stroke-width="1.2"/><text x="728" y="376" font-family="Arial, sans-serif" font-size="12" font-weight="400" fill="#64748b">Bác sĩ đang online</text><text x="728" y="406" font-family="Arial, sans-serif" font-size="27" font-weight="700" fill="#334155">12</text><text x="678" y="436" font-family="Arial, sans-serif" font-size="11" font-weight="400" fill="#64748b">Sẵn sàng tiếp nhận</text><rect x="1044" y="342" width="356" height="112" rx="10" fill="#ffffff" stroke="#cbd5e1" stroke-width="1.3"/><circle cx="1082" cy="380" r="18" fill="#e2e8f0" stroke="#94a3b8" stroke-width="1.2"/><text x="1112" y="376" font-family="Arial, sans-serif" font-size="12" font-weight="400" fill="#64748b">Thời gian phản hồi</text><text x="1112" y="406" font-family="Arial, sans-serif" font-size="27" font-weight="700" fill="#334155">~ 5 phút</text><text x="1062" y="436" font-family="Arial, sans-serif" font-size="11" font-weight="400" fill="#64748b">Ước tính hiện tại</text><rect x="276" y="486" width="356" height="212" rx="10" fill="#ffffff" stroke="#cbd5e1" stroke-width="1.3"/><circle cx="316" cy="532" r="24" fill="#e2e8f0" stroke="#94a3b8" stroke-width="1.2"/><text x="354" y="526" font-family="Arial, sans-serif" font-size="14" font-weight="700" fill="#334155">BS. Trần Thị Hoa</text><text x="354" y="546" font-family="Arial, sans-serif" font-size="11" font-weight="400" fill="#64748b">Tim mạch</text><rect x="496" y="514" width="116" height="26" rx="13" fill="#f8fafc" stroke="#cbd5e1" stroke-width="1.3"/><text x="554" y="532" font-family="Arial, sans-serif" font-size="11" font-weight="700" fill="#475569" text-anchor="middle">Đang tiếp nhận</text><line x1="294" y1="572" x2="614" y2="572" stroke="#e2e8f0" stroke-width="1.2" stroke-linecap="round"/><text x="300" y="606" font-family="Arial, sans-serif" font-size="11" font-weight="400" fill="#334155">Đau đầu và chóng mặt, cần bác sĩ đánh giá thêm.</text><line x1="294" y1="636" x2="614" y2="636" stroke="#e2e8f0" stroke-width="1.2" stroke-linecap="round"/><text x="300" y="670" font-family="Arial, sans-serif" font-size="11" font-weight="400" fill="#64748b">● Đang online</text><text x="596" y="670" font-family="Arial, sans-serif" font-size="18" font-weight="700" fill="#334155">›</text><rect x="660" y="486" width="356" height="212" rx="10" fill="#ffffff" stroke="#cbd5e1" stroke-width="1.3"/><circle cx="700" cy="532" r="24" fill="#e2e8f0" stroke="#94a3b8" stroke-width="1.2"/><text x="738" y="526" font-family="Arial, sans-serif" font-size="14" font-weight="700" fill="#334155">BS. Lê Quốc Bảo</text><text x="738" y="546" font-family="Arial, sans-serif" font-size="11" font-weight="400" fill="#64748b">Tim mạch</text><rect x="880" y="514" width="116" height="26" rx="13" fill="#f8fafc" stroke="#cbd5e1" stroke-width="1.3"/><text x="938" y="532" font-family="Arial, sans-serif" font-size="11" font-weight="700" fill="#475569" text-anchor="middle">Đang tiếp nhận</text><line x1="678" y1="572" x2="998" y2="572" stroke="#e2e8f0" stroke-width="1.2" stroke-linecap="round"/><text x="684" y="606" font-family="Arial, sans-serif" font-size="11" font-weight="400" fill="#334155">Tôi đã nhận kết quả ECG của bạn.</text><line x1="678" y1="636" x2="998" y2="636" stroke="#e2e8f0" stroke-width="1.2" stroke-linecap="round"/><text x="684" y="670" font-family="Arial, sans-serif" font-size="11" font-weight="400" fill="#64748b">● Đang online</text><text x="980" y="670" font-family="Arial, sans-serif" font-size="18" font-weight="700" fill="#334155">›</text><rect x="1044" y="486" width="356" height="212" rx="10" fill="#ffffff" stroke="#cbd5e1" stroke-width="1.3"/><circle cx="1084" cy="532" r="24" fill="#e2e8f0" stroke="#94a3b8" stroke-width="1.2"/><text x="1122" y="526" font-family="Arial, sans-serif" font-size="14" font-weight="700" fill="#334155">BS. Đỗ Gia Huy</text><text x="1122" y="546" font-family="Arial, sans-serif" font-size="11" font-weight="400" fill="#64748b">Hô hấp</text><rect x="1264" y="514" width="116" height="26" rx="13" fill="#f8fafc" stroke="#cbd5e1" stroke-width="1.3"/><text x="1322" y="532" font-family="Arial, sans-serif" font-size="11" font-weight="700" fill="#475569" text-anchor="middle">Đang tiếp nhận</text><line x1="1062" y1="572" x2="1382" y2="572" stroke="#e2e8f0" stroke-width="1.2" stroke-linecap="round"/><text x="1068" y="606" font-family="Arial, sans-serif" font-size="11" font-weight="400" fill="#334155">Bạn còn ho nhiều về đêm không?</text><line x1="1062" y1="636" x2="1382" y2="636" stroke="#e2e8f0" stroke-width="1.2" stroke-linecap="round"/><text x="1068" y="670" font-family="Arial, sans-serif" font-size="11" font-weight="400" fill="#64748b">● Đang online</text><text x="1364" y="670" font-family="Arial, sans-serif" font-size="18" font-weight="700" fill="#334155">›</text></g>
</svg>