<svg xmlns="http://www.w3.org/2000/svg" width="1440" height="1024" viewBox="0 0 1440 1024">
  <title>Patient - Chatbot black white</title>
  <rect width="1440" height="1024" fill="#fff"/>
  <rect x="0" y="0" width="248" height="1024" rx="0" fill="#fff" stroke="#111" stroke-width="2"/>
  <rect x="248" y="0" width="1192" height="72" rx="0" fill="#fff" stroke="#111" stroke-width="2"/>
  <rect x="28" y="26" width="54" height="38" rx="0" fill="#fff" stroke="#111" stroke-width="2"/><line x1="36" y1="34" x2="74" y2="56" stroke="#111" stroke-width="2" stroke-linecap="round"/><line x1="74" y1="34" x2="36" y2="56" stroke="#111" stroke-width="2" stroke-linecap="round"/>
  <text x="96" y="48" font-family="Arial, sans-serif" font-size="18" font-weight="700" fill="#111">MedConsult</text>
  <text x="28" y="112" font-family="Arial, sans-serif" font-size="12" font-weight="700" fill="#111">PATIENT</text>
  <rect x="28" y="130" width="192" height="42" rx="6" fill="#fff" stroke="#111" stroke-width="2"/><circle cx="52" cy="151" r="8" fill="#fff" stroke="#111" stroke-width="2"/><text x="72" y="156" font-family="Arial, sans-serif" font-size="13" font-weight="400" fill="#111">Dashboard</text><rect x="28" y="186" width="192" height="42" rx="6" fill="#f1f1f1" stroke="#111" stroke-width="2"/><circle cx="52" cy="207" r="8" fill="#fff" stroke="#111" stroke-width="2"/><text x="72" y="212" font-family="Arial, sans-serif" font-size="13" font-weight="700" fill="#111">Chatbot</text><rect x="28" y="242" width="192" height="42" rx="6" fill="#fff" stroke="#111" stroke-width="2"/><circle cx="52" cy="263" r="8" fill="#fff" stroke="#111" stroke-width="2"/><text x="72" y="268" font-family="Arial, sans-serif" font-size="13" font-weight="400" fill="#111">Online Consult</text><rect x="28" y="298" width="192" height="42" rx="6" fill="#fff" stroke="#111" stroke-width="2"/><circle cx="52" cy="319" r="8" fill="#fff" stroke="#111" stroke-width="2"/><text x="72" y="324" font-family="Arial, sans-serif" font-size="13" font-weight="400" fill="#111">Consult Chat</text><rect x="28" y="354" width="192" height="42" rx="6" fill="#fff" stroke="#111" stroke-width="2"/><circle cx="52" cy="375" r="8" fill="#fff" stroke="#111" stroke-width="2"/><text x="72" y="380" font-family="Arial, sans-serif" font-size="13" font-weight="400" fill="#111">Booking</text><rect x="28" y="410" width="192" height="42" rx="6" fill="#fff" stroke="#111" stroke-width="2"/><circle cx="52" cy="431" r="8" fill="#fff" stroke="#111" stroke-width="2"/><text x="72" y="436" font-family="Arial, sans-serif" font-size="13" font-weight="400" fill="#111">Services</text><rect x="28" y="466" width="192" height="42" rx="6" fill="#fff" stroke="#111" stroke-width="2"/><circle cx="52" cy="487" r="8" fill="#fff" stroke="#111" stroke-width="2"/><text x="72" y="492" font-family="Arial, sans-serif" font-size="13" font-weight="400" fill="#111">Records</text><rect x="28" y="522" width="192" height="42" rx="6" fill="#fff" stroke="#111" stroke-width="2"/><circle cx="52" cy="543" r="8" fill="#fff" stroke="#111" stroke-width="2"/><text x="72" y="548" font-family="Arial, sans-serif" font-size="13" font-weight="400" fill="#111">Appointments</text><rect x="28" y="578" width="192" height="42" rx="6" fill="#fff" stroke="#111" stroke-width="2"/><circle cx="52" cy="599" r="8" fill="#fff" stroke="#111" stroke-width="2"/><text x="72" y="604" font-family="Arial, sans-serif" font-size="13" font-weight="400" fill="#111">Billing</text><rect x="28" y="634" width="192" height="42" rx="6" fill="#fff" stroke="#111" stroke-width="2"/><circle cx="52" cy="655" r="8" fill="#fff" stroke="#111" stroke-width="2"/><text x="72" y="660" font-family="Arial, sans-serif" font-size="13" font-weight="400" fill="#111">History</text><rect x="28" y="690" width="192" height="42" rx="6" fill="#fff" stroke="#111" stroke-width="2"/><circle cx="52" cy="711" r="8" fill="#fff" stroke="#111" stroke-width="2"/><text x="72" y="716" font-family="Arial, sans-serif" font-size="13" font-weight="400" fill="#111">Settings</text><rect x="28" y="746" width="192" height="42" rx="6" fill="#fff" stroke="#111" stroke-width="2"/><circle cx="52" cy="767" r="8" fill="#fff" stroke="#111" stroke-width="2"/><text x="72" y="772" font-family="Arial, sans-serif" font-size="13" font-weight="400" fill="#111">Booking Prefill</text>
  <line x1="28" y1="920" x2="220" y2="920" stroke="#111" stroke-width="2" stroke-linecap="round"/>
  <text x="28" y="956" font-family="Arial, sans-serif" font-size="13" font-weight="700" fill="#111">Logout</text>
  <rect x="288" y="16" width="460" height="42" rx="6" fill="#fff" stroke="#111" stroke-width="2"/><text x="302" y="43" font-family="Arial, sans-serif" font-size="12" font-weight="400" fill="#555">Global search...</text>
  <rect x="1194" y="18" width="80" height="36" rx="6" fill="#fff" stroke="#111" stroke-width="2"/><text x="1234" y="41" font-family="Arial, sans-serif" font-size="12" font-weight="700" fill="#111" text-anchor="middle">Noti.</text>
  <circle cx="1316" cy="37" r="20" fill="#fff" stroke="#111" stroke-width="2"/>
  <rect x="1348" y="25" width="62" height="8" rx="0" fill="#111" stroke="#111" stroke-width="0"/><rect x="1348" y="39" width="42" height="8" rx="0" fill="#111" stroke="#111" stroke-width="0"/>
  <text x="288" y="134" font-family="Arial, sans-serif" font-size="28" font-weight="700" fill="#111">Chatbot</text><text x="288" y="162" font-family="Arial, sans-serif" font-size="13" font-weight="400" fill="#555">Khảo sát triệu chứng ban đầu cùng trợ lý y tế.</text><rect x="288" y="194" width="1096" height="720" rx="10" fill="#fff" stroke="#111" stroke-width="2"/><text x="306" y="224" font-family="Arial, sans-serif" font-size="16" font-weight="700" fill="#111">Trợ lý MedConsult</text><rect x="312" y="246" width="1048" height="58" rx="8" fill="#f7f7f7" stroke="#111" stroke-width="2"/><circle cx="342" cy="275" r="18" fill="#fff" stroke="#111" stroke-width="2"/><rect x="374" y="262" width="160" height="8" rx="0" fill="#111" stroke="#111" stroke-width="0"/><rect x="374" y="278" width="260" height="8" rx="0" fill="#111" stroke="#111" stroke-width="0"/><rect x="340" y="350" width="548" height="72" rx="14" fill="#fff" stroke="#111" stroke-width="2"/><rect x="360" y="376" width="320" height="8" rx="0" fill="#111" stroke="#111" stroke-width="0"/><rect x="360" y="392" width="230" height="8" rx="0" fill="#111" stroke="#111" stroke-width="0"/><rect x="360" y="452" width="138" height="28" rx="14" fill="#fff" stroke="#111" stroke-width="2"/><text x="429" y="471" font-family="Arial, sans-serif" font-size="11" font-weight="700" fill="#111" text-anchor="middle">Sốt / Ớn lạnh</text><rect x="516" y="452" width="138" height="28" rx="14" fill="#fff" stroke="#111" stroke-width="2"/><text x="585" y="471" font-family="Arial, sans-serif" font-size="11" font-weight="700" fill="#111" text-anchor="middle">Đau đầu</text><rect x="672" y="452" width="138" height="28" rx="14" fill="#fff" stroke="#111" stroke-width="2"/><text x="741" y="471" font-family="Arial, sans-serif" font-size="11" font-weight="700" fill="#111" text-anchor="middle">Ho / Sổ mũi</text><rect x="360" y="494" width="138" height="28" rx="14" fill="#fff" stroke="#111" stroke-width="2"/><text x="429" y="513" font-family="Arial, sans-serif" font-size="11" font-weight="700" fill="#111" text-anchor="middle">Đau bụng</text><rect x="516" y="494" width="138" height="28" rx="14" fill="#fff" stroke="#111" stroke-width="2"/><text x="585" y="513" font-family="Arial, sans-serif" font-size="11" font-weight="700" fill="#111" text-anchor="middle">Đau ngực</text><rect x="672" y="494" width="138" height="28" rx="14" fill="#fff" stroke="#111" stroke-width="2"/><text x="741" y="513" font-family="Arial, sans-serif" font-size="11" font-weight="700" fill="#111" text-anchor="middle">Vấn đề khác</text><rect x="898" y="552" width="334" height="56" rx="14" fill="#f1f1f1" stroke="#111" stroke-width="2"/><rect x="918" y="574" width="220" height="8" rx="0" fill="#111" stroke="#111" stroke-width="0"/><rect x="918" y="589" width="130" height="8" rx="0" fill="#111" stroke="#111" stroke-width="0"/><rect x="340" y="650" width="610" height="72" rx="14" fill="#fff" stroke="#111" stroke-width="2"/><rect x="360" y="676" width="340" height="8" rx="0" fill="#111" stroke="#111" stroke-width="0"/><rect x="360" y="692" width="280" height="8" rx="0" fill="#111" stroke="#111" stroke-width="0"/><rect x="384" y="838" width="840" height="42" rx="6" fill="#fff" stroke="#111" stroke-width="2"/><text x="398" y="865" font-family="Arial, sans-serif" font-size="12" font-weight="400" fill="#555">Nhập triệu chứng...</text><rect x="1246" y="838" width="92" height="36" rx="6" fill="#fff" stroke="#111" stroke-width="2"/><text x="1292" y="861" font-family="Arial, sans-serif" font-size="12" font-weight="700" fill="#111" text-anchor="middle">Gửi</text><rect x="340" y="838" width="36" height="36" rx="6" fill="#fff" stroke="#111" stroke-width="2"/><text x="358" y="861" font-family="Arial, sans-serif" font-size="12" font-weight="700" fill="#111" text-anchor="middle">+</text>
  </svg>