<svg xmlns="http://www.w3.org/2000/svg" width="1440" height="1024" viewBox="0 0 1440 1024">
  <title>Patient - History black white</title>
  <rect width="1440" height="1024" fill="#fff"/>
  <rect x="0" y="0" width="248" height="1024" rx="0" fill="#fff" stroke="#111" stroke-width="2"/>
  <rect x="248" y="0" width="1192" height="72" rx="0" fill="#fff" stroke="#111" stroke-width="2"/>
  <rect x="28" y="26" width="54" height="38" rx="0" fill="#fff" stroke="#111" stroke-width="2"/><line x1="36" y1="34" x2="74" y2="56" stroke="#111" stroke-width="2" stroke-linecap="round"/><line x1="74" y1="34" x2="36" y2="56" stroke="#111" stroke-width="2" stroke-linecap="round"/>
  <text x="96" y="48" font-family="Arial, sans-serif" font-size="18" font-weight="700" fill="#111">MedConsult</text>
  <text x="28" y="112" font-family="Arial, sans-serif" font-size="12" font-weight="700" fill="#111">PATIENT</text>
  <rect x="28" y="130" width="192" height="42" rx="6" fill="#fff" stroke="#111" stroke-width="2"/><circle cx="52" cy="151" r="8" fill="#fff" stroke="#111" stroke-width="2"/><text x="72" y="156" font-family="Arial, sans-serif" font-size="13" font-weight="400" fill="#111">Dashboard</text><rect x="28" y="186" width="192" height="42" rx="6" fill="#fff" stroke="#111" stroke-width="2"/><circle cx="52" cy="207" r="8" fill="#fff" stroke="#111" stroke-width="2"/><text x="72" y="212" font-family="Arial, sans-serif" font-size="13" font-weight="400" fill="#111">Chatbot</text><rect x="28" y="242" width="192" height="42" rx="6" fill="#fff" stroke="#111" stroke-width="2"/><circle cx="52" cy="263" r="8" fill="#fff" stroke="#111" stroke-width="2"/><text x="72" y="268" font-family="Arial, sans-serif" font-size="13" font-weight="400" fill="#111">Online Consult</text><rect x="28" y="298" width="192" height="42" rx="6" fill="#fff" stroke="#111" stroke-width="2"/><circle cx="52" cy="319" r="8" fill="#fff" stroke="#111" stroke-width="2"/><text x="72" y="324" font-family="Arial, sans-serif" font-size="13" font-weight="400" fill="#111">Consult Chat</text><rect x="28" y="354" width="192" height="42" rx="6" fill="#fff" stroke="#111" stroke-width="2"/><circle cx="52" cy="375" r="8" fill="#fff" stroke="#111" stroke-width="2"/><text x="72" y="380" font-family="Arial, sans-serif" font-size="13" font-weight="400" fill="#111">Booking</text><rect x="28" y="410" width="192" height="42" rx="6" fill="#fff" stroke="#111" stroke-width="2"/><circle cx="52" cy="431" r="8" fill="#fff" stroke="#111" stroke-width="2"/><text x="72" y="436" font-family="Arial, sans-serif" font-size="13" font-weight="400" fill="#111">Services</text><rect x="28" y="466" width="192" height="42" rx="6" fill="#fff" stroke="#111" stroke-width="2"/><circle cx="52" cy="487" r="8" fill="#fff" stroke="#111" stroke-width="2"/><text x="72" y="492" font-family="Arial, sans-serif" font-size="13" font-weight="400" fill="#111">Records</text><rect x="28" y="522" width="192" height="42" rx="6" fill="#fff" stroke="#111" stroke-width="2"/><circle cx="52" cy="543" r="8" fill="#fff" stroke="#111" stroke-width="2"/><text x="72" y="548" font-family="Arial, sans-serif" font-size="13" font-weight="400" fill="#111">Appointments</text><rect x="28" y="578" width="192" height="42" rx="6" fill="#fff" stroke="#111" stroke-width="2"/><circle cx="52" cy="599" r="8" fill="#fff" stroke="#111" stroke-width="2"/><text x="72" y="604" font-family="Arial, sans-serif" font-size="13" font-weight="400" fill="#111">Billing</text><rect x="28" y="634" width="192" height="42" rx="6" fill="#f1f1f1" stroke="#111" stroke-width="2"/><circle cx="52" cy="655" r="8" fill="#fff" stroke="#111" stroke-width="2"/><text x="72" y="660" font-family="Arial, sans-serif" font-size="13" font-weight="700" fill="#111">History</text><rect x="28" y="690" width="192" height="42" rx="6" fill="#fff" stroke="#111" stroke-width="2"/><circle cx="52" cy="711" r="8" fill="#fff" stroke="#111" stroke-width="2"/><text x="72" y="716" font-family="Arial, sans-serif" font-size="13" font-weight="400" fill="#111">Settings</text><rect x="28" y="746" width="192" height="42" rx="6" fill="#fff" stroke="#111" stroke-width="2"/><circle cx="52" cy="767" r="8" fill="#fff" stroke="#111" stroke-width="2"/><text x="72" y="772" font-family="Arial, sans-serif" font-size="13" font-weight="400" fill="#111">Booking Prefill</text>
  <line x1="28" y1="920" x2="220" y2="920" stroke="#111" stroke-width="2" stroke-linecap="round"/>
  <text x="28" y="956" font-family="Arial, sans-serif" font-size="13" font-weight="700" fill="#111">Logout</text>
  <rect x="288" y="16" width="460" height="42" rx="6" fill="#fff" stroke="#111" stroke-width="2"/><text x="302" y="43" font-family="Arial, sans-serif" font-size="12" font-weight="400" fill="#555">Global search...</text>
  <rect x="1194" y="18" width="80" height="36" rx="6" fill="#fff" stroke="#111" stroke-width="2"/><text x="1234" y="41" font-family="Arial, sans-serif" font-size="12" font-weight="700" fill="#111" text-anchor="middle">Noti.</text>
  <circle cx="1316" cy="37" r="20" fill="#fff" stroke="#111" stroke-width="2"/>
  <rect x="1348" y="25" width="62" height="8" rx="0" fill="#111" stroke="#111" stroke-width="0"/><rect x="1348" y="39" width="42" height="8" rx="0" fill="#111" stroke="#111" stroke-width="0"/>
  <text x="288" y="134" font-family="Arial, sans-serif" font-size="28" font-weight="700" fill="#111">History</text><text x="288" y="162" font-family="Arial, sans-serif" font-size="13" font-weight="400" fill="#555">Tra cứu lịch sử khám và tư vấn.</text><rect x="288" y="194" width="1096" height="112" rx="10" fill="#fff" stroke="#111" stroke-width="2"/><text x="306" y="224" font-family="Arial, sans-serif" font-size="16" font-weight="700" fill="#111">Bộ lọc lịch sử khám</text><rect x="312" y="236" width="96" height="36" rx="6" fill="#fff" stroke="#111" stroke-width="2"/><text x="360" y="259" font-family="Arial, sans-serif" font-size="12" font-weight="700" fill="#111" text-anchor="middle">Tất cả</text><rect x="426" y="236" width="110" height="36" rx="6" fill="#fff" stroke="#111" stroke-width="2"/><text x="481" y="259" font-family="Arial, sans-serif" font-size="12" font-weight="700" fill="#111" text-anchor="middle">Khám bệnh</text><rect x="554" y="236" width="150" height="36" rx="6" fill="#fff" stroke="#111" stroke-width="2"/><text x="629" y="259" font-family="Arial, sans-serif" font-size="12" font-weight="700" fill="#111" text-anchor="middle">Tư vấn online</text><rect x="732" y="236" width="420" height="42" rx="6" fill="#fff" stroke="#111" stroke-width="2"/><text x="746" y="263" font-family="Arial, sans-serif" font-size="12" font-weight="400" fill="#555">Tìm theo bác sĩ hoặc mã hồ sơ...</text><rect x="288" y="346" width="1096" height="136" rx="10" fill="#fff" stroke="#111" stroke-width="2"/><text x="306" y="376" font-family="Arial, sans-serif" font-size="16" font-weight="700" fill="#111">Lần khám</text><circle cx="330" cy="414" r="22" fill="#fff" stroke="#111" stroke-width="2"/><rect x="370" y="394" width="240" height="8" rx="0" fill="#111" stroke="#111" stroke-width="0"/><rect x="370" y="414" width="360" height="8" rx="0" fill="#111" stroke="#111" stroke-width="0"/><rect x="370" y="434" width="280" height="8" rx="0" fill="#111" stroke="#111" stroke-width="0"/><rect x="1166" y="378" width="128" height="28" rx="14" fill="#fff" stroke="#111" stroke-width="2"/><text x="1230" y="397" font-family="Arial, sans-serif" font-size="11" font-weight="700" fill="#111" text-anchor="middle">Trạng thái</text><rect x="1166" y="428" width="128" height="36" rx="6" fill="#fff" stroke="#111" stroke-width="2"/><text x="1230" y="451" font-family="Arial, sans-serif" font-size="12" font-weight="700" fill="#111" text-anchor="middle">Xem chi tiết</text><rect x="288" y="524" width="1096" height="136" rx="10" fill="#fff" stroke="#111" stroke-width="2"/><text x="306" y="554" font-family="Arial, sans-serif" font-size="16" font-weight="700" fill="#111">Lần khám</text><circle cx="330" cy="592" r="22" fill="#fff" stroke="#111" stroke-width="2"/><rect x="370" y="572" width="240" height="8" rx="0" fill="#111" stroke="#111" stroke-width="0"/><rect x="370" y="592" width="360" height="8" rx="0" fill="#111" stroke="#111" stroke-width="0"/><rect x="370" y="612" width="280" height="8" rx="0" fill="#111" stroke="#111" stroke-width="0"/><rect x="1166" y="556" width="128" height="28" rx="14" fill="#fff" stroke="#111" stroke-width="2"/><text x="1230" y="575" font-family="Arial, sans-serif" font-size="11" font-weight="700" fill="#111" text-anchor="middle">Trạng thái</text><rect x="1166" y="606" width="128" height="36" rx="6" fill="#fff" stroke="#111" stroke-width="2"/><text x="1230" y="629" font-family="Arial, sans-serif" font-size="12" font-weight="700" fill="#111" text-anchor="middle">Xem chi tiết</text><rect x="288" y="702" width="1096" height="136" rx="10" fill="#fff" stroke="#111" stroke-width="2"/><text x="306" y="732" font-family="Arial, sans-serif" font-size="16" font-weight="700" fill="#111">Lần khám</text><circle cx="330" cy="770" r="22" fill="#fff" stroke="#111" stroke-width="2"/><rect x="370" y="750" width="240" height="8" rx="0" fill="#111" stroke="#111" stroke-width="0"/><rect x="370" y="770" width="360" height="8" rx="0" fill="#111" stroke="#111" stroke-width="0"/><rect x="370" y="790" width="280" height="8" rx="0" fill="#111" stroke="#111" stroke-width="0"/><rect x="1166" y="734" width="128" height="28" rx="14" fill="#fff" stroke="#111" stroke-width="2"/><text x="1230" y="753" font-family="Arial, sans-serif" font-size="11" font-weight="700" fill="#111" text-anchor="middle">Trạng thái</text><rect x="1166" y="784" width="128" height="36" rx="6" fill="#fff" stroke="#111" stroke-width="2"/><text x="1230" y="807" font-family="Arial, sans-serif" font-size="12" font-weight="700" fill="#111" text-anchor="middle">Xem chi tiết</text>
  </svg>